# xmcd
#
# Track frame offsets: 
#        150
#        12462
#        29580
#        44032
#        57097
#        75270
#        91802
#        105037
#        117825
#        132367
#        146872
#        162597
#        174487
#        188197
#        203535
#
# Disc length: 2910 seconds
#
# Revision: 2
# Processed by: cddbd v1.5.2PL0 Copyright (c) Steve Scherf et al.
# Submitted via: ExactAudioCopy v0.99pb5
#
DISCID=c40b5c0f
DTITLE=Tanya Tucker - Country Classics
DYEAR=1997
DGENRE=Country
TTITLE0=Strong Enough To Bend
TTITLE1=Love Me Like You Used To
TTITLE2=Just Another Love
TTITLE3=One Love At A Time
TTITLE4=Texas (When I Die)
TTITLE5=I Won't Take Less Than Your Love
TTITLE6=San Antonio Stroll
TTITLE7=Would You Lay With Me
TTITLE8=What's Your Mam's Name, Child
TTITLE9=Blood Red And Going Down
TTITLE10=Highway Robbery
TTITLE11=Walkin' Shoes
TTITLE12=The Jamestown Ferry
TTITLE13=If It Don't Come Easy
TTITLE14=Something
EXTD=
EXTT0=
EXTT1=
EXTT2=
EXTT3=
EXTT4=
EXTT5=
EXTT6=
EXTT7=
EXTT8=
EXTT9=
EXTT10=
EXTT11=
EXTT12=
EXTT13=
EXTT14=
PLAYORDER=
